<svg xmlns="http://www.w3.org/2000/svg" xmlns:xlink="http://www.w3.org/1999/xlink" width="500" zoomAndPan="magnify" viewBox="0 0 375 374.999991" height="500" preserveAspectRatio="xMidYMid meet" version="1.0"><defs><g/><clipPath id="c7eea9c04e"><path d="M 113 26.660156 L 252.949219 26.660156 L 252.949219 187.160156 L 113 187.160156 Z M 113 26.660156 " clip-rule="nonzero"/></clipPath></defs><rect x="-37.5" width="450" fill="#ffffff" y="-37.499999" height="449.999989" fill-opacity="1"/><rect x="-37.5" width="450" fill="#0029ff" y="-37.499999" height="449.999989" fill-opacity="1"/><g clip-path="url(#c7eea9c04e)"><path fill="#ffffff" d="M 188.496094 186.859375 C 199.949219 181.007812 210.449219 173.773438 219.996094 165.164062 C 222.167969 163.222656 224.242188 161.15625 226.222656 158.96875 L 228.78125 156.058594 C 230.089844 154.632812 231.253906 153.148438 232.503906 151.550781 C 233.753906 149.949219 235.410156 147.914062 236.574219 146.023438 C 239.316406 142.089844 241.71875 137.960938 243.789062 133.632812 C 244.921875 131.277344 245.96875 128.863281 246.929688 126.421875 C 249.359375 119.996094 250.980469 113.375 251.785156 106.554688 C 252.019531 104.664062 252.195312 102.773438 252.308594 100.882812 C 252.65625 96.019531 252.484375 91.171875 251.785156 86.34375 C 251.285156 82.839844 250.523438 79.394531 249.5 76.007812 C 248.476562 72.621094 247.199219 69.335938 245.671875 66.140625 C 244.144531 62.949219 242.386719 59.894531 240.394531 56.972656 C 238.398438 54.046875 236.195312 51.292969 233.78125 48.707031 C 231.007812 45.726562 227.992188 43.011719 224.738281 40.5625 C 221.484375 38.113281 218.042969 35.964844 214.410156 34.125 C 210.777344 32.28125 207.011719 30.769531 203.117188 29.589844 C 199.21875 28.40625 195.246094 27.578125 191.203125 27.097656 C 189.894531 27.027344 188.597656 26.882812 187.304688 26.660156 L 178.113281 26.660156 C 178.113281 26.890625 177.792969 26.804688 177.621094 26.835938 C 175.25 27.027344 172.890625 27.335938 170.550781 27.765625 C 168.671875 28.113281 166.804688 28.539062 164.960938 29.042969 C 163.113281 29.542969 161.289062 30.121094 159.492188 30.773438 C 157.691406 31.425781 155.921875 32.152344 154.183594 32.949219 C 152.441406 33.746094 150.738281 34.617188 149.070312 35.554688 C 147.402344 36.492188 145.773438 37.496094 144.191406 38.570312 C 142.605469 39.640625 141.066406 40.777344 139.574219 41.972656 C 138.082031 43.171875 136.640625 44.429688 135.25 45.746094 C 133.863281 47.066406 132.53125 48.4375 131.253906 49.863281 C 129.980469 51.289062 128.765625 52.765625 127.609375 54.292969 C 126.453125 55.820312 125.363281 57.390625 124.339844 59.007812 C 123.316406 60.621094 122.359375 62.277344 121.46875 63.972656 C 120.578125 65.667969 119.761719 67.398438 119.015625 69.160156 C 118.269531 70.921875 117.59375 72.710938 116.996094 74.527344 C 116.394531 76.347656 115.871094 78.183594 115.421875 80.046875 C 114.976562 81.90625 114.605469 83.78125 114.308594 85.671875 C 114.015625 87.566406 113.800781 89.464844 113.660156 91.375 C 113.277344 96.542969 113.460938 101.695312 114.207031 106.828125 C 114.949219 111.957031 116.242188 116.949219 118.082031 121.796875 C 118.707031 123.425781 119.414062 125.015625 120.207031 126.566406 L 120.789062 127.757812 C 124.488281 135.121094 129.335938 141.625 135.332031 147.273438 C 138.457031 150.246094 141.832031 152.898438 145.453125 155.234375 C 149.074219 157.574219 152.882812 159.554688 156.878906 161.179688 C 160.871094 162.804688 164.980469 164.046875 169.207031 164.898438 C 173.433594 165.753906 177.699219 166.210938 182.011719 166.265625 C 182.824219 166.265625 183.058594 166.472656 183.03125 167.3125 L 183.03125 183.71875 C 183.042969 184.03125 183.09375 184.339844 183.183594 184.644531 C 183.273438 184.945312 183.402344 185.230469 183.566406 185.5 C 183.726562 185.769531 183.921875 186.015625 184.148438 186.234375 C 184.371094 186.453125 184.621094 186.644531 184.894531 186.800781 C 185.167969 186.957031 185.457031 187.078125 185.761719 187.160156 C 186.0625 187.246094 186.375 187.289062 186.6875 187.292969 C 187.003906 187.300781 187.316406 187.265625 187.621094 187.191406 C 187.925781 187.117188 188.21875 187.007812 188.496094 186.859375 Z M 189.488281 77.644531 C 189.417969 77.265625 189.40625 76.886719 189.453125 76.503906 C 189.5 76.121094 189.601562 75.753906 189.757812 75.40625 C 189.917969 75.054688 190.125 74.734375 190.382812 74.445312 C 190.636719 74.160156 190.929688 73.917969 191.261719 73.71875 C 191.824219 73.375 192.433594 73.207031 193.09375 73.222656 L 218.890625 73.222656 C 221.1875 73.222656 222.496094 75.261719 222.496094 77.90625 L 222.496094 108.386719 C 222.496094 109.46875 222.414062 110.539062 222.253906 111.605469 C 222.09375 112.671875 221.859375 113.722656 221.546875 114.753906 C 221.234375 115.789062 220.847656 116.792969 220.390625 117.769531 C 219.933594 118.746094 219.40625 119.683594 218.8125 120.582031 C 218.214844 121.480469 217.558594 122.335938 216.839844 123.136719 C 216.121094 123.941406 215.347656 124.691406 214.519531 125.382812 C 213.691406 126.074219 212.816406 126.699219 211.898438 127.265625 C 210.976562 127.828125 210.023438 128.324219 209.03125 128.746094 L 208.449219 129.039062 C 208.574219 129.199219 208.742188 129.277344 208.945312 129.269531 C 208.742188 129.277344 208.574219 129.199219 208.449219 129.039062 L 207.957031 129.039062 C 206.285156 129.527344 204.585938 129.90625 202.867188 130.171875 C 202.589844 130.253906 202.3125 130.269531 202.027344 130.222656 C 201.746094 130.171875 201.488281 130.066406 201.253906 129.898438 C 201.019531 129.730469 200.835938 129.519531 200.699219 129.265625 C 200.566406 129.015625 200.492188 128.742188 200.480469 128.457031 C 200.480469 127.527344 200.480469 126.59375 200.480469 125.546875 L 200.480469 120.546875 C 200.480469 120.167969 200.480469 119.820312 200.480469 119.441406 C 200.480469 118.160156 200.976562 117.609375 202.574219 117.257812 C 204.636719 116.898438 206.457031 116.035156 208.042969 114.671875 C 208.945312 113.792969 209.675781 112.792969 210.234375 111.664062 C 210.792969 110.535156 211.148438 109.347656 211.300781 108.097656 L 193.210938 108.097656 C 192.957031 108.105469 192.710938 108.089844 192.460938 108.042969 C 192.214844 108 191.972656 107.933594 191.742188 107.839844 C 191.507812 107.746094 191.285156 107.628906 191.078125 107.492188 C 190.867188 107.351562 190.675781 107.195312 190.5 107.015625 C 190.320312 106.835938 190.164062 106.640625 190.03125 106.429688 C 189.894531 106.21875 189.78125 105.996094 189.691406 105.761719 C 189.601562 105.523438 189.539062 105.285156 189.5 105.035156 C 189.457031 104.789062 189.445312 104.539062 189.457031 104.289062 C 189.457031 95.464844 189.457031 86.640625 189.457031 77.820312 C 189.457031 77.820312 189.488281 77.703125 189.488281 77.644531 Z M 176.601562 108.332031 C 176.605469 109.871094 176.449219 111.394531 176.132812 112.898438 C 175.816406 114.40625 175.34375 115.863281 174.714844 117.269531 C 174.089844 118.675781 173.320312 120 172.414062 121.242188 C 171.507812 122.488281 170.480469 123.621094 169.332031 124.648438 L 168.601562 125.34375 C 166.1875 127.277344 163.492188 128.675781 160.519531 129.53125 C 159.242188 129.851562 157.953125 130.09375 156.648438 130.261719 C 156.429688 130.292969 156.210938 130.285156 155.992188 130.242188 C 155.773438 130.195312 155.570312 130.109375 155.382812 129.988281 C 155.199219 129.871094 155.039062 129.71875 154.90625 129.539062 C 154.773438 129.363281 154.675781 129.164062 154.613281 128.953125 C 154.613281 126.140625 154.613281 123.339844 154.613281 120.546875 C 154.613281 119.730469 154.324219 118.828125 154.992188 118.101562 C 155.3125 117.734375 155.710938 117.492188 156.183594 117.375 C 157.683594 117.101562 159.105469 116.617188 160.460938 115.921875 C 161.644531 115.230469 162.644531 114.332031 163.453125 113.222656 C 164.261719 112.117188 164.816406 110.890625 165.113281 109.550781 L 165.578125 108.097656 L 147.777344 108.097656 C 147.269531 108.117188 146.765625 108.070312 146.265625 107.953125 C 145.894531 107.851562 145.550781 107.695312 145.230469 107.484375 C 144.90625 107.273438 144.628906 107.019531 144.390625 106.71875 C 144.152344 106.414062 143.964844 106.085938 143.835938 105.722656 C 143.703125 105.363281 143.632812 104.992188 143.621094 104.605469 C 143.621094 95.667969 143.621094 86.730469 143.621094 77.789062 C 143.476562 77.101562 143.511719 76.417969 143.722656 75.746094 C 143.9375 75.074219 144.300781 74.496094 144.8125 74.011719 C 145.4375 73.4375 146.175781 73.148438 147.023438 73.136719 L 172.996094 73.136719 C 175.292969 73.136719 176.574219 73.863281 176.574219 77.820312 C 176.601562 78.546875 176.660156 98.585938 176.601562 108.332031 Z M 176.601562 108.332031 " fill-opacity="1" fill-rule="nonzero"/></g><g fill="#ffffff" fill-opacity="1"><g transform="translate(0.0000045, 282.717476)"><g><path d="M 68.046875 0 L 54.703125 0 L 41.0625 -14.96875 L 20.90625 -14.96875 L 20.90625 -23.28125 L 43.359375 -23.28125 C 46.722656 -23.28125 49.28125 -24.21875 51.03125 -26.09375 C 52.789062 -27.96875 53.671875 -30.632812 53.671875 -34.09375 C 53.671875 -37.601562 52.753906 -40.207031 50.921875 -41.90625 C 49.097656 -43.613281 46.578125 -44.46875 43.359375 -44.46875 L 14.015625 -44.46875 L 14.015625 0 L 4.671875 0 L 4.671875 -53.890625 L 43.359375 -53.890625 C 49.535156 -53.890625 54.34375 -52.117188 57.78125 -48.578125 C 61.21875 -45.046875 62.9375 -40.269531 62.9375 -34.25 C 62.9375 -29.800781 61.957031 -26.046875 60 -22.984375 C 58.050781 -19.921875 55.320312 -17.71875 51.8125 -16.375 Z M 68.046875 0 "/></g></g></g><g fill="#ffffff" fill-opacity="1"><g transform="translate(68.265495, 282.717476)"><g><path d="M 52.84375 0 L 4.671875 0 L 4.671875 -53.890625 L 52.78125 -53.890625 L 52.78125 -44.46875 L 14.015625 -44.46875 L 14.015625 -9.40625 L 52.84375 -9.40625 Z M 50.78125 -23.421875 L 20.90625 -23.421875 L 20.90625 -31.359375 L 50.78125 -31.359375 Z M 50.78125 -23.421875 "/></g></g></g><g fill="#ffffff" fill-opacity="1"><g transform="translate(124.523376, 282.717476)"><g><path d="M 58.484375 0 L 29.28125 0 C 25.519531 0 22.046875 -0.691406 18.859375 -2.078125 C 15.671875 -3.460938 12.90625 -5.398438 10.5625 -7.890625 C 8.21875 -10.390625 6.390625 -13.304688 5.078125 -16.640625 C 3.765625 -19.972656 3.109375 -23.59375 3.109375 -27.5 C 3.109375 -32.789062 4.242188 -37.410156 6.515625 -41.359375 C 8.796875 -45.316406 11.910156 -48.394531 15.859375 -50.59375 C 19.816406 -52.789062 24.289062 -53.890625 29.28125 -53.890625 L 58.484375 -53.890625 L 58.484375 -44.46875 L 29.28125 -44.46875 C 26.070312 -44.46875 23.207031 -43.726562 20.6875 -42.25 C 18.164062 -40.769531 16.175781 -38.71875 14.71875 -36.09375 C 13.257812 -33.476562 12.53125 -30.46875 12.53125 -27.0625 C 12.53125 -23.695312 13.242188 -20.679688 14.671875 -18.015625 C 16.109375 -15.347656 18.097656 -13.242188 20.640625 -11.703125 C 23.191406 -10.171875 26.070312 -9.40625 29.28125 -9.40625 L 58.484375 -9.40625 Z M 58.484375 0 "/></g></g></g><g fill="#ffffff" fill-opacity="1"><g transform="translate(185.969734, 282.717476)"><g><path d="M 57.453125 0.21875 L 48.03125 0.21875 L 48.03125 -23.203125 L 20.90625 -23.203125 L 20.90625 -31.578125 L 48.03125 -31.578125 L 48.03125 -53.890625 L 57.453125 -53.890625 Z M 14.078125 0.21875 L 4.671875 0.21875 L 4.671875 -53.890625 L 14.078125 -53.890625 Z M 14.078125 0.21875 "/></g></g></g><g fill="#ffffff" fill-opacity="1"><g transform="translate(248.083178, 282.717476)"><g><path d="M 72.203125 0 L 60.859375 0 L 52.78125 -13.5625 L 27.28125 -13.5625 L 31.71875 -21.203125 L 48.25 -21.203125 L 36.25 -41.359375 L 11.78125 0 L 1.03125 0 L 32.015625 -51.59375 C 32.566406 -52.53125 33.210938 -53.269531 33.953125 -53.8125 C 34.691406 -54.351562 35.582031 -54.625 36.625 -54.625 C 37.65625 -54.625 38.53125 -54.351562 39.25 -53.8125 C 39.96875 -53.269531 40.597656 -52.53125 41.140625 -51.59375 Z M 72.203125 0 "/></g></g></g><g fill="#ffffff" fill-opacity="1"><g transform="translate(321.388899, 282.717476)"><g><path d="M 31.359375 0 L 21.9375 0 L 21.9375 -44.46875 L 1.484375 -44.46875 L 1.484375 -53.890625 L 51.8125 -53.890625 L 51.8125 -44.46875 L 31.359375 -44.46875 Z M 31.359375 0 "/></g></g></g></svg>