<svg xmlns="http://www.w3.org/2000/svg" xmlns:xlink="http://www.w3.org/1999/xlink" width="500" zoomAndPan="magnify" viewBox="0 0 375 374.999991" height="500" preserveAspectRatio="xMidYMid meet" version="1.0"><defs><clipPath id="14a639ca1c"><path d="M 39 14.964844 L 351 14.964844 L 351 374.964844 L 39 374.964844 Z M 39 14.964844 " clip-rule="nonzero"/></clipPath></defs><rect x="-37.5" width="450" fill="#ffffff" y="-37.499999" height="449.999989" fill-opacity="1"/><rect x="-37.5" width="450" fill="#ffffff" y="-37.499999" height="449.999989" fill-opacity="1"/><g clip-path="url(#14a639ca1c)"><path fill="#0029ff" d="M 207.167969 373.566406 C 232.796875 360.464844 256.300781 344.277344 277.675781 324.996094 C 282.539062 320.65625 287.183594 316.035156 291.609375 311.128906 L 297.339844 304.621094 C 300.269531 301.429688 302.871094 298.109375 305.671875 294.527344 C 308.472656 290.945312 312.183594 286.390625 314.785156 282.15625 C 320.917969 273.347656 326.300781 264.105469 330.933594 254.421875 C 333.472656 249.148438 335.816406 243.746094 337.964844 238.277344 C 343.40625 223.898438 347.03125 209.074219 348.835938 193.808594 C 349.359375 189.578125 349.75 185.34375 350.007812 181.113281 C 350.785156 170.21875 350.394531 159.371094 348.835938 148.558594 C 347.71875 140.71875 346.011719 133.011719 343.71875 125.429688 C 341.425781 117.851562 338.566406 110.488281 335.152344 103.34375 C 331.734375 96.199219 327.792969 89.355469 323.332031 82.8125 C 318.871094 76.269531 313.9375 70.105469 308.535156 64.3125 C 305.4375 60.984375 302.195312 57.796875 298.8125 54.753906 C 295.433594 51.710938 291.925781 48.820312 288.289062 46.082031 C 284.65625 43.347656 280.90625 40.777344 277.046875 38.371094 C 273.1875 35.960938 269.226562 33.730469 265.171875 31.671875 C 261.113281 29.613281 256.976562 27.734375 252.753906 26.039062 C 248.53125 24.34375 244.242188 22.835938 239.890625 21.519531 C 235.535156 20.199219 231.132812 19.074219 226.679688 18.144531 C 222.226562 17.210938 217.738281 16.476562 213.222656 15.941406 C 210.292969 15.785156 207.386719 15.460938 204.496094 14.964844 L 183.925781 14.964844 C 183.925781 15.484375 183.207031 15.289062 182.816406 15.355469 C 177.507812 15.785156 172.234375 16.480469 166.996094 17.4375 C 164.890625 17.828125 162.796875 18.261719 160.707031 18.738281 C 158.621094 19.214844 156.542969 19.734375 154.476562 20.296875 C 152.410156 20.859375 150.359375 21.464844 148.316406 22.109375 C 146.273438 22.757812 144.246094 23.445312 142.234375 24.175781 C 140.222656 24.902344 138.226562 25.675781 136.242188 26.488281 C 134.261719 27.300781 132.296875 28.152344 130.351562 29.042969 C 128.40625 29.9375 126.480469 30.871094 124.570312 31.839844 C 122.664062 32.8125 120.777344 33.824219 118.910156 34.875 C 117.042969 35.921875 115.199219 37.011719 113.378906 38.136719 C 111.554688 39.261719 109.757812 40.421875 107.984375 41.621094 C 106.210938 42.820312 104.460938 44.058594 102.738281 45.328125 C 101.015625 46.597656 99.320312 47.90625 97.652344 49.246094 C 95.980469 50.585938 94.339844 51.960938 92.726562 53.371094 C 91.113281 54.777344 89.53125 56.21875 87.976562 57.691406 C 86.425781 59.164062 84.902344 60.671875 83.410156 62.207031 C 81.917969 63.742188 80.457031 65.308594 79.03125 66.902344 C 77.601562 68.5 76.210938 70.125 74.847656 71.777344 C 73.488281 73.429688 72.160156 75.113281 70.871094 76.820312 C 69.578125 78.527344 68.324219 80.261719 67.101562 82.019531 C 65.882812 83.78125 64.699219 85.5625 63.550781 87.371094 C 62.40625 89.179688 61.296875 91.011719 60.222656 92.863281 C 59.152344 94.71875 58.117188 96.59375 57.125 98.488281 C 56.128906 100.386719 55.175781 102.300781 54.257812 104.238281 C 53.34375 106.171875 52.46875 108.125 51.632812 110.097656 C 50.796875 112.070312 50 114.054688 49.246094 116.058594 C 48.492188 118.0625 47.78125 120.082031 47.109375 122.117188 C 46.441406 124.148438 45.8125 126.195312 45.226562 128.253906 C 44.636719 130.316406 44.09375 132.386719 43.59375 134.464844 C 43.089844 136.546875 42.632812 138.640625 42.214844 140.738281 C 41.800781 142.839844 41.429688 144.949219 41.097656 147.0625 C 40.769531 149.179688 40.484375 151.300781 40.242188 153.429688 C 40 155.558594 39.804688 157.6875 39.648438 159.824219 C 38.792969 171.398438 39.195312 182.929688 40.867188 194.417969 C 42.535156 205.902344 45.429688 217.070312 49.546875 227.925781 C 50.941406 231.566406 52.527344 235.125 54.296875 238.601562 L 55.601562 241.269531 C 59.710938 249.445312 64.496094 257.203125 69.964844 264.539062 C 75.433594 271.875 81.496094 278.683594 88.152344 284.957031 C 91.644531 288.273438 95.28125 291.421875 99.066406 294.398438 C 102.851562 297.375 106.765625 300.167969 110.8125 302.777344 C 114.859375 305.390625 119.015625 307.804688 123.289062 310.027344 C 127.558594 312.25 131.925781 314.269531 136.386719 316.082031 C 140.84375 317.898438 145.378906 319.5 149.988281 320.890625 C 154.601562 322.28125 159.265625 323.457031 163.984375 324.410156 C 168.703125 325.367188 173.457031 326.101562 178.246094 326.609375 C 183.03125 327.121094 187.832031 327.410156 192.648438 327.472656 C 194.472656 327.472656 194.992188 327.925781 194.925781 329.816406 L 194.925781 366.535156 C 194.941406 366.886719 194.976562 367.234375 195.035156 367.582031 C 195.09375 367.925781 195.171875 368.269531 195.273438 368.605469 C 195.375 368.941406 195.496094 369.269531 195.636719 369.589844 C 195.78125 369.914062 195.941406 370.222656 196.125 370.523438 C 196.308594 370.824219 196.507812 371.113281 196.726562 371.386719 C 196.941406 371.660156 197.179688 371.921875 197.429688 372.167969 C 197.679688 372.414062 197.945312 372.640625 198.226562 372.855469 C 198.507812 373.066406 198.796875 373.257812 199.101562 373.433594 C 199.40625 373.609375 199.722656 373.765625 200.046875 373.898438 C 200.371094 374.035156 200.703125 374.148438 201.039062 374.242188 C 201.378906 374.335938 201.722656 374.40625 202.070312 374.457031 C 202.417969 374.507812 202.765625 374.535156 203.117188 374.539062 C 203.46875 374.546875 203.820312 374.53125 204.167969 374.492188 C 204.515625 374.453125 204.863281 374.394531 205.203125 374.308594 C 205.546875 374.226562 205.878906 374.125 206.210938 374 C 206.539062 373.875 206.855469 373.730469 207.167969 373.566406 Z M 209.378906 129.09375 C 209.226562 128.246094 209.199219 127.394531 209.304688 126.539062 C 209.40625 125.683594 209.636719 124.863281 209.992188 124.078125 C 210.347656 123.292969 210.8125 122.578125 211.382812 121.933594 C 211.957031 121.292969 212.613281 120.746094 213.351562 120.304688 C 214.609375 119.53125 215.976562 119.164062 217.453125 119.199219 L 275.203125 119.199219 C 280.347656 119.199219 283.277344 123.753906 283.277344 129.679688 L 283.277344 197.910156 C 283.269531 200.324219 283.085938 202.726562 282.730469 205.113281 C 282.375 207.503906 281.847656 209.851562 281.148438 212.164062 C 280.449219 214.472656 279.585938 216.722656 278.558594 218.910156 C 277.53125 221.09375 276.355469 223.195312 275.023438 225.207031 C 273.691406 227.222656 272.21875 229.128906 270.609375 230.929688 C 269 232.726562 267.269531 234.402344 265.414062 235.949219 C 263.5625 237.496094 261.605469 238.902344 259.546875 240.164062 C 257.488281 241.425781 255.351562 242.535156 253.132812 243.484375 L 251.828125 244.136719 C 252.113281 244.492188 252.480469 244.667969 252.9375 244.65625 C 252.480469 244.667969 252.113281 244.492188 251.828125 244.136719 L 250.722656 244.136719 C 246.980469 245.234375 243.183594 246.078125 239.328125 246.675781 C 239.023438 246.765625 238.714844 246.820312 238.398438 246.835938 C 238.082031 246.855469 237.765625 246.839844 237.453125 246.785156 C 237.140625 246.730469 236.839844 246.644531 236.546875 246.519531 C 236.253906 246.398438 235.976562 246.246094 235.722656 246.058594 C 235.464844 245.875 235.230469 245.664062 235.019531 245.425781 C 234.8125 245.183594 234.632812 244.925781 234.484375 244.648438 C 234.332031 244.367188 234.214844 244.074219 234.132812 243.769531 C 234.050781 243.460938 234.003906 243.152344 233.992188 242.832031 C 233.992188 240.75 233.992188 238.667969 233.992188 236.324219 L 233.992188 225.125 C 233.992188 224.277344 233.992188 223.496094 233.992188 222.652344 C 233.992188 219.785156 235.097656 218.550781 238.679688 217.769531 C 240.941406 217.371094 243.113281 216.683594 245.191406 215.699219 C 247.269531 214.714844 249.175781 213.472656 250.917969 211.972656 C 252.941406 210.011719 254.578125 207.765625 255.828125 205.242188 C 257.078125 202.71875 257.871094 200.058594 258.210938 197.257812 L 217.714844 197.257812 C 217.152344 197.277344 216.59375 197.238281 216.039062 197.140625 C 215.484375 197.046875 214.949219 196.890625 214.425781 196.683594 C 213.902344 196.476562 213.410156 196.214844 212.941406 195.902344 C 212.472656 195.59375 212.039062 195.238281 211.644531 194.835938 C 211.25 194.433594 210.902344 194 210.597656 193.523438 C 210.292969 193.050781 210.042969 192.554688 209.839844 192.027344 C 209.640625 191.503906 209.496094 190.960938 209.40625 190.40625 C 209.320312 189.851562 209.289062 189.292969 209.316406 188.730469 C 209.316406 168.980469 209.316406 149.234375 209.316406 129.484375 C 209.316406 129.484375 209.378906 129.222656 209.378906 129.09375 Z M 180.539062 197.78125 C 180.550781 201.226562 180.199219 204.636719 179.488281 208.007812 C 178.777344 211.378906 177.71875 214.640625 176.316406 217.789062 C 174.914062 220.9375 173.195312 223.902344 171.164062 226.683594 C 169.132812 229.46875 166.832031 232.007812 164.261719 234.304688 L 162.632812 235.867188 C 157.226562 240.195312 151.191406 243.320312 144.535156 245.242188 C 141.679688 245.960938 138.796875 246.5 135.875 246.871094 C 135.382812 246.945312 134.894531 246.929688 134.40625 246.824219 C 133.917969 246.722656 133.464844 246.535156 133.042969 246.265625 C 132.625 245.996094 132.265625 245.660156 131.96875 245.261719 C 131.671875 244.859375 131.457031 244.421875 131.320312 243.941406 C 131.320312 237.648438 131.320312 231.375 131.320312 225.125 C 131.320312 223.300781 130.667969 221.285156 132.164062 219.65625 C 132.882812 218.828125 133.773438 218.289062 134.835938 218.027344 C 138.1875 217.417969 141.375 216.335938 144.40625 214.773438 C 145.71875 214.007812 146.941406 213.117188 148.066406 212.101562 C 149.195312 211.082031 150.210938 209.960938 151.105469 208.734375 C 152.003906 207.507812 152.765625 206.203125 153.390625 204.816406 C 154.015625 203.433594 154.492188 202 154.820312 200.515625 L 155.863281 197.257812 L 116.019531 197.257812 C 114.875 197.304688 113.746094 197.199219 112.632812 196.933594 C 111.804688 196.710938 111.027344 196.363281 110.3125 195.890625 C 109.59375 195.417969 108.964844 194.84375 108.433594 194.171875 C 107.898438 193.496094 107.484375 192.753906 107.191406 191.949219 C 106.894531 191.140625 106.734375 190.304688 106.707031 189.445312 C 106.707031 169.4375 106.707031 149.429688 106.707031 129.417969 C 106.550781 128.660156 106.492188 127.890625 106.535156 127.113281 C 106.574219 126.339844 106.710938 125.582031 106.945312 124.839844 C 107.175781 124.101562 107.5 123.402344 107.914062 122.742188 C 108.324219 122.085938 108.8125 121.488281 109.378906 120.957031 C 110.054688 120.339844 110.820312 119.863281 111.671875 119.523438 C 112.523438 119.1875 113.410156 119.015625 114.324219 119.003906 L 172.464844 119.003906 C 177.609375 119.003906 180.472656 120.628906 180.472656 129.484375 C 180.539062 131.113281 180.667969 175.96875 180.539062 197.78125 Z M 180.539062 197.78125 " fill-opacity="1" fill-rule="nonzero"/></g></svg>