<svg xmlns="http://www.w3.org/2000/svg" xmlns:xlink="http://www.w3.org/1999/xlink" width="500" zoomAndPan="magnify" viewBox="0 0 375 374.999991" height="500" preserveAspectRatio="xMidYMid meet" version="1.0"><defs><g/><clipPath id="9bcd776e5f"><path d="M 54 148.347656 L 122 148.347656 L 122 226.347656 L 54 226.347656 Z M 54 148.347656 " clip-rule="nonzero"/></clipPath></defs><rect x="-37.5" width="450" fill="#ffffff" y="-37.499999" height="449.999989" fill-opacity="1"/><rect x="-37.5" width="450" fill="#0029ff" y="-37.499999" height="449.999989" fill-opacity="1"/><g clip-path="url(#9bcd776e5f)"><path fill="#ffffff" d="M 90.734375 226.339844 C 96.3125 223.492188 101.421875 219.96875 106.070312 215.777344 C 107.128906 214.832031 108.136719 213.828125 109.101562 212.761719 L 110.347656 211.34375 C 110.984375 210.652344 111.550781 209.929688 112.160156 209.148438 C 112.769531 208.371094 113.574219 207.378906 114.140625 206.460938 C 115.476562 204.542969 116.648438 202.53125 117.652344 200.425781 C 118.207031 199.28125 118.714844 198.105469 119.183594 196.914062 C 120.367188 193.789062 121.15625 190.566406 121.546875 187.246094 C 121.660156 186.324219 121.746094 185.402344 121.804688 184.484375 C 121.972656 182.113281 121.886719 179.753906 121.546875 177.402344 C 121.058594 173.972656 120.066406 170.695312 118.570312 167.570312 C 117.074219 164.445312 115.148438 161.613281 112.78125 159.082031 C 111.429688 157.628906 109.964844 156.308594 108.378906 155.117188 C 106.796875 153.921875 105.121094 152.878906 103.351562 151.980469 C 101.582031 151.082031 99.75 150.347656 97.851562 149.773438 C 95.953125 149.199219 94.023438 148.792969 92.054688 148.558594 C 91.417969 148.527344 90.785156 148.453125 90.15625 148.347656 L 85.679688 148.347656 C 85.679688 148.460938 85.523438 148.417969 85.441406 148.433594 C 84.285156 148.527344 83.136719 148.675781 82 148.886719 C 80.164062 149.226562 78.367188 149.714844 76.613281 150.351562 C 74.859375 150.988281 73.167969 151.761719 71.539062 152.675781 C 69.914062 153.59375 68.371094 154.632812 66.917969 155.804688 C 65.460938 156.972656 64.113281 158.253906 62.867188 159.644531 C 61.621094 161.035156 60.5 162.519531 59.5 164.09375 C 58.5 165.671875 57.636719 167.320312 56.910156 169.039062 C 56.179688 170.757812 55.597656 172.523438 55.160156 174.339844 C 54.722656 176.152344 54.4375 177.992188 54.300781 179.851562 C 53.925781 184.949219 54.640625 189.886719 56.453125 194.664062 C 56.757812 195.457031 57.101562 196.230469 57.488281 196.988281 L 57.773438 197.566406 C 59.574219 201.152344 61.933594 204.316406 64.851562 207.070312 C 66.375 208.515625 68.015625 209.804688 69.78125 210.945312 C 71.542969 212.082031 73.398438 213.046875 75.339844 213.839844 C 77.285156 214.628906 79.285156 215.234375 81.34375 215.648438 C 83.402344 216.066406 85.480469 216.289062 87.578125 216.316406 C 87.976562 216.316406 88.089844 216.414062 88.074219 216.824219 L 88.074219 224.8125 C 88.078125 224.964844 88.105469 225.113281 88.148438 225.261719 C 88.191406 225.40625 88.253906 225.546875 88.335938 225.679688 C 88.414062 225.808594 88.507812 225.929688 88.617188 226.035156 C 88.726562 226.144531 88.847656 226.234375 88.980469 226.3125 C 89.113281 226.386719 89.253906 226.445312 89.402344 226.488281 C 89.550781 226.527344 89.703125 226.550781 89.855469 226.550781 C 90.007812 226.554688 90.160156 226.539062 90.308594 226.503906 C 90.457031 226.464844 90.601562 226.414062 90.734375 226.339844 Z M 91.21875 173.167969 C 91.148438 172.792969 91.191406 172.429688 91.351562 172.078125 C 91.507812 171.730469 91.753906 171.457031 92.082031 171.257812 C 92.355469 171.089844 92.652344 171.007812 92.972656 171.015625 L 105.53125 171.015625 C 106.652344 171.015625 107.289062 172.007812 107.289062 173.296875 L 107.289062 188.136719 C 107.285156 189.191406 107.132812 190.226562 106.824219 191.234375 C 106.519531 192.246094 106.078125 193.191406 105.492188 194.074219 C 104.910156 194.953125 104.214844 195.734375 103.40625 196.410156 C 102.59375 197.085938 101.703125 197.632812 100.734375 198.046875 L 100.449219 198.191406 C 100.511719 198.269531 100.589844 198.304688 100.691406 198.304688 C 100.589844 198.304688 100.511719 198.269531 100.449219 198.191406 L 100.207031 198.191406 C 99.394531 198.429688 98.570312 198.613281 97.730469 198.742188 C 97.597656 198.78125 97.460938 198.789062 97.324219 198.765625 C 97.183594 198.742188 97.058594 198.691406 96.945312 198.609375 C 96.832031 198.527344 96.742188 198.425781 96.675781 198.300781 C 96.609375 198.179688 96.574219 198.046875 96.570312 197.90625 C 96.570312 197.453125 96.570312 197 96.570312 196.492188 L 96.570312 194.054688 C 96.570312 193.871094 96.570312 193.703125 96.570312 193.515625 C 96.570312 192.894531 96.8125 192.625 97.589844 192.457031 C 98.59375 192.28125 99.480469 191.859375 100.25 191.195312 C 101.15625 190.316406 101.6875 189.25 101.835938 187.996094 L 93.03125 187.996094 C 92.78125 188.003906 92.542969 187.960938 92.316406 187.871094 C 92.085938 187.777344 91.882812 187.644531 91.710938 187.46875 C 91.535156 187.292969 91.40625 187.089844 91.316406 186.855469 C 91.230469 186.625 91.191406 186.386719 91.203125 186.140625 C 91.203125 181.84375 91.203125 177.550781 91.203125 173.253906 C 91.203125 173.253906 91.21875 173.199219 91.21875 173.167969 Z M 84.945312 188.109375 C 84.949219 189.625 84.644531 191.074219 84.027344 192.460938 C 83.410156 193.84375 82.535156 195.042969 81.40625 196.050781 L 81.050781 196.390625 C 79.875 197.332031 78.5625 198.011719 77.113281 198.429688 C 76.492188 198.585938 75.867188 198.703125 75.230469 198.785156 C 75.007812 198.816406 74.804688 198.773438 74.613281 198.652344 C 74.425781 198.53125 74.300781 198.363281 74.238281 198.148438 C 74.238281 196.777344 74.238281 195.414062 74.238281 194.054688 C 74.238281 193.660156 74.097656 193.21875 74.421875 192.867188 C 74.578125 192.6875 74.773438 192.566406 75.003906 192.511719 C 75.734375 192.378906 76.425781 192.144531 77.085938 191.804688 C 77.664062 191.46875 78.148438 191.03125 78.542969 190.492188 C 78.9375 189.949219 79.207031 189.355469 79.351562 188.703125 L 79.578125 187.996094 L 70.910156 187.996094 C 70.664062 188.003906 70.417969 187.980469 70.175781 187.925781 C 69.804688 187.824219 69.5 187.625 69.261719 187.324219 C 69.023438 187.023438 68.898438 186.679688 68.886719 186.296875 C 68.886719 181.945312 68.886719 177.59375 68.886719 173.238281 C 68.816406 172.902344 68.835938 172.570312 68.9375 172.246094 C 69.042969 171.917969 69.21875 171.636719 69.46875 171.398438 C 69.773438 171.121094 70.132812 170.980469 70.542969 170.972656 L 83.1875 170.972656 C 84.308594 170.972656 84.929688 171.328125 84.929688 173.253906 C 84.945312 173.609375 84.972656 183.363281 84.945312 188.109375 Z M 84.945312 188.109375 " fill-opacity="1" fill-rule="nonzero"/></g><g fill="#ffffff" fill-opacity="1"><g transform="translate(136.011425, 197.951999)"><g><path d="M 36.109375 0 L 29.03125 0 L 21.78125 -7.9375 L 11.09375 -7.9375 L 11.09375 -12.34375 L 23 -12.34375 C 24.789062 -12.34375 26.148438 -12.84375 27.078125 -13.84375 C 28.003906 -14.84375 28.46875 -16.257812 28.46875 -18.09375 C 28.46875 -19.957031 27.984375 -21.335938 27.015625 -22.234375 C 26.046875 -23.140625 24.707031 -23.59375 23 -23.59375 L 7.4375 -23.59375 L 7.4375 0 L 2.484375 0 L 2.484375 -28.59375 L 23 -28.59375 C 26.28125 -28.59375 28.832031 -27.65625 30.65625 -25.78125 C 32.476562 -23.90625 33.390625 -21.367188 33.390625 -18.171875 C 33.390625 -15.804688 32.867188 -13.8125 31.828125 -12.1875 C 30.796875 -10.5625 29.347656 -9.394531 27.484375 -8.6875 Z M 36.109375 0 "/></g></g></g><g fill="#ffffff" fill-opacity="1"><g transform="translate(172.23266, 197.951999)"><g><path d="M 28.046875 0 L 2.484375 0 L 2.484375 -28.59375 L 28 -28.59375 L 28 -23.59375 L 7.4375 -23.59375 L 7.4375 -5 L 28.046875 -5 Z M 26.9375 -12.421875 L 11.09375 -12.421875 L 11.09375 -16.640625 L 26.9375 -16.640625 Z M 26.9375 -12.421875 "/></g></g></g><g fill="#ffffff" fill-opacity="1"><g transform="translate(202.082729, 197.951999)"><g><path d="M 31.03125 0 L 15.53125 0 C 13.539062 0 11.695312 -0.363281 10 -1.09375 C 8.3125 -1.832031 6.84375 -2.863281 5.59375 -4.1875 C 4.351562 -5.507812 3.382812 -7.054688 2.6875 -8.828125 C 2 -10.597656 1.65625 -12.519531 1.65625 -14.59375 C 1.65625 -17.394531 2.253906 -19.84375 3.453125 -21.9375 C 4.660156 -24.039062 6.3125 -25.675781 8.40625 -26.84375 C 10.507812 -28.007812 12.882812 -28.59375 15.53125 -28.59375 L 31.03125 -28.59375 L 31.03125 -23.59375 L 15.53125 -23.59375 C 13.832031 -23.59375 12.3125 -23.195312 10.96875 -22.40625 C 9.632812 -21.625 8.578125 -20.535156 7.796875 -19.140625 C 7.023438 -17.753906 6.640625 -16.160156 6.640625 -14.359375 C 6.640625 -12.578125 7.019531 -10.976562 7.78125 -9.5625 C 8.539062 -8.144531 9.597656 -7.03125 10.953125 -6.21875 C 12.304688 -5.40625 13.832031 -5 15.53125 -5 L 31.03125 -5 Z M 31.03125 0 "/></g></g></g><g fill="#ffffff" fill-opacity="1"><g transform="translate(234.685766, 197.951999)"><g><path d="M 30.484375 0.125 L 25.484375 0.125 L 25.484375 -12.3125 L 11.09375 -12.3125 L 11.09375 -16.75 L 25.484375 -16.75 L 25.484375 -28.59375 L 30.484375 -28.59375 Z M 7.46875 0.125 L 2.484375 0.125 L 2.484375 -28.59375 L 7.46875 -28.59375 Z M 7.46875 0.125 "/></g></g></g><g fill="#ffffff" fill-opacity="1"><g transform="translate(267.642756, 197.951999)"><g><path d="M 38.3125 0 L 32.28125 0 L 28 -7.203125 L 14.46875 -7.203125 L 16.828125 -11.25 L 25.609375 -11.25 L 19.234375 -21.9375 L 6.25 0 L 0.546875 0 L 16.984375 -27.375 C 17.273438 -27.875 17.617188 -28.265625 18.015625 -28.546875 C 18.410156 -28.835938 18.878906 -28.984375 19.421875 -28.984375 C 19.972656 -28.984375 20.4375 -28.835938 20.8125 -28.546875 C 21.195312 -28.265625 21.535156 -27.875 21.828125 -27.375 Z M 38.3125 0 "/></g></g></g><g fill="#ffffff" fill-opacity="1"><g transform="translate(306.538303, 197.951999)"><g><path d="M 16.640625 0 L 11.640625 0 L 11.640625 -23.59375 L 0.78125 -23.59375 L 0.78125 -28.59375 L 27.484375 -28.59375 L 27.484375 -23.59375 L 16.640625 -23.59375 Z M 16.640625 0 "/></g></g></g><path stroke-linecap="round" transform="matrix(0.75, 0, 0, 0.75, 136.761425, 215.624986)" fill="none" stroke-linejoin="miter" d="M 2.500392 2.500019 L 244.187908 2.500019 " stroke="#ffffff" stroke-width="5" stroke-opacity="1" stroke-miterlimit="4"/></svg>